<svg xmlns="http://www.w3.org/2000/svg" width="16.75" height="16.75" viewBox="0 0 16.75 16.75"><path fill="#FFF" d="M5.03 13.008c6.04 0 9.343-5.006 9.343-9.343 0-.141 0-.281-.01-.427A6.69 6.69 0 0 0 16 1.536a6.464 6.464 0 0 1-1.888.517A3.29 3.29 0 0 0 15.558.236a6.595 6.595 0 0 1-2.084.798 3.285 3.285 0 0 0-5.592 2.997A9.323 9.323 0 0 1 1.115.602a3.285 3.285 0 0 0 1.013 4.383 3.235 3.235 0 0 1-1.49-.412v.04a3.287 3.287 0 0 0 2.636 3.218c-.482.13-.989.15-1.481.055a3.288 3.288 0 0 0 3.067 2.279A6.607 6.607 0 0 1 0 11.53a9.27 9.27 0 0 0 5.03 1.478"/></svg>